# xmcd
#
# Track frame offsets:
#  182
#  66647
#  79575
#  93855
#  106830
#  120907
#  133402
#  146907
#  162850
#  176782
#  190967
#
# Disc length: 2685 seconds
#
# Revision: 0
# Processed by: cddbd v1.5.1PL2 Copyright (c) Steve Scherf et al.
# Submitted via: Collectorz.com_Music_Collector 6.9
#
DISCID=9b0a7b0b
DTITLE=Lucho Macedo - A Guapachar Con Lucho Macedo Vol.2
DYEAR=1900
DGENRE=Tropical
TTITLE0=Mosaico De Guarachas
TTITLE1=D.R. - Humo
TTITLE2=D.R. - Cara Sucia
TTITLE3=D.R. - Componte Cundunga
TTITLE4=D.R. - Besito De Coco
TTITLE5=D.R. - Mochita
TTITLE6=D.R. - El Negro Bembón
TTITLE7=D.R. - La Boa
TTITLE8=D.R. - Ave María Lola
TTITLE9=C. Damirón - Por Un Maní
TTITLE10=Carlos Rigual - La Del Vestido Rojo
EXTD=
EXTT0=
EXTT1=
EXTT2=
EXTT3=
EXTT4=
EXTT5=
EXTT6=
EXTT7=
EXTT8=
EXTT9=
EXTT10=
PLAYORDER=
